<svg xmlns="http://www.w3.org/2000/svg" version="1.1" xmlns:xlink="http://www.w3.org/1999/xlink" xmlns:svgjs="http://svgjs.dev/svgjs" width="1000" height="1125" viewBox="0 0 1000 1125"><g transform="matrix(1,0,0,1,1.7053025658242404e-13,0)"><svg viewBox="0 0 320 360" data-background-color="#ffffff" preserveAspectRatio="xMidYMid meet" height="1125" width="1000" xmlns="http://www.w3.org/2000/svg" xmlns:xlink="http://www.w3.org/1999/xlink"><g id="tight-bounds" transform="matrix(1,0,0,1,0,0)"><svg viewBox="0 0 320 360" height="360" width="320"><g><svg></svg></g><g><svg viewBox="0 0 320 360" height="360" width="320"><g><path d="M20.961 227.22l3.726 4.658-1.863-6.056c-0.466-2.795-3.726 0.466-1.863 1.398M25.153 224.425c1.397 2.329 2.795 4.658 2.795 6.987 0 3.261 2.795 4.658 5.123 5.589-3.261-3.726-5.124-13.974-7.918-12.576M204.017 26.929c7.918 0 15.371-0.932 23.756 0.931 20.495 5.124 37.729 15.371 49.374 29.811l32.606 52.169c1.397 13.042 4.192 27.482 3.726 43.319 3.261 0 2.795-4.658 6.521-5.59-3.726 9.316-5.59 20.961-6.521 34.469-2.329-7.453 0-18.632 0.466-24.687-3.261 5.124-5.124 1.397-5.124-0.932 0.466-3.726-1.397-3.261-2.795-4.658-5.124-4.658-8.384-9.782-12.11-17.7 2.329-6.055 2.795-14.905-4.658-19.563-2.329-1.397-5.124-3.726-6.521-7.453-1.863-5.124-5.124-11.179-4.193-19.097 0.466-2.329-6.987 5.124-11.179 1.863-18.166-12.576-36.332-27.016-58.224-39.127-11.645 0-20.029-4.192-24.221-9.316-3.726-4.658-0.932-10.713 4.658-11.179 3.261 0 6.987-0.932 9.782 0.932 0.466-1.863 2.329-4.192 4.657-4.192M157.904 16.215l0.932 0.466c4.658 0.932 6.987 7.453 12.11 5.124 0 3.261 0.466 6.521-0.466 8.85-1.397 3.726-5.59 3.726-8.85 3.726-31.208-1.863-49.374 11.179-68.471 22.358-5.124 3.261-10.713 5.59-14.906 9.782-20.029 18.632-41.921 35.866-47.045 70.335l-4.192 38.195c-0.466 4.192-5.124 8.384-4.192 13.508l3.26 22.824c-3.261-3.261-5.124 0.932-4.192 2.795 0.466 1.397 2.329 6.055 5.124 1.863 3.726 6.987 7.453 20.495 12.576 26.55 15.837 18.632 36.332 35.4 53.101 52.169 4.192-0.932 7.453-0.932 8.384-3.727 1.397 2.795-1.397 5.59-3.726 6.056 7.453 4.658 15.837 8.85 27.016 9.781 14.44 0.932 27.948 3.261 40.524 6.522 6.521-1.863 13.042-2.795 20.029-3.261 2.329 0 3.726-3.726 6.521-4.658l0.466-4.658c2.795 4.192 2.329-1.397 0.466-4.192 3.261 2.795 4.192 5.124 5.589 6.987 0-1.397 3.726-6.521 3.727-0.466l0.931-6.055c1.397-0.932 1.863 5.124 3.261 0.931 1.397-4.192 4.192-0.932 6.987-2.329-0.932 1.863-0.466 5.59 2.794 3.261l3.727-3.261c2.329 5.59 6.055 3.261 7.918 2.329 20.495-13.042 40.99-28.413 60.553-43.784l-0.466 6.055 2.329-7.453c2.329 2.329 4.192 0.466 5.124-0.931 2.795-4.658 6.521-9.316 12.577-13.508-7.453 20.029-16.303 35.866-27.482 48.908l-4.658 5.59c0 3.261-0.932 7.453-4.658 7.918-1.863 0.466-5.59-0.932-8.384 1.863-1.397 1.863 3.261 5.59-0.466 2.795-3.261-2.329-6.521 0-10.248 0.932-2.795 0.932 1.863 3.726 2.795 5.589 0.932 1.863 1.863 3.726 1.398 6.056l-5.124-5.59c-6.055 3.261-9.782 9.316-14.906 13.974-2.329 1.863-1.397 5.124-1.397 7.918-3.261 0-6.987-0.932-8.85 0.932-1.397 1.863-0.932 4.658-0.932 7.453-4.658-0.466-5.124-7.453-9.315-6.056-4.192 0.932-8.85 1.397-12.577 3.727 2.795 5.59-4.658 2.329-3.726 3.26-6.987-4.192-13.042-7.453-20.495-4.658-15.837-5.124-35.4-2.795-49.84-0.931 0-2.329 0.466-4.658-0.466-5.124-0.932 2.329-3.726 1.397-3.26 1.397-8.85-6.055-17.7-9.782-27.016-14.905-8.384 0.932-16.303-3.261-18.632-5.59-6.521-6.055-13.974-2.795-20.029-4.192-13.042-3.261-17.7-16.769-19.098-26.084-0.932-4.658-4.658-6.521-6.055-6.056-6.055-19.563-15.371-37.263-22.824-55.429-1.863-4.658-1.397-9.316-1.397-14.44 2.329 0.932 4.658 0.466 4.192-2.794-2.329-15.371-7.918-27.016-13.974-38.195 3.261-15.837 3.726-34.469 11.179-48.443 6.521-12.576 18.632-19.098 27.016-29.811 2.795-3.726 2.795-8.85 5.59-12.11 9.316-9.316 18.632-19.098 28.879-27.482 4.658-3.726 10.247 0 17.234-1.397 2.329-8.384 11.645-15.837 20.495-13.508 3.726 0.932 11.179-8.85 13.508-9.782 3.726-1.397 1.863 3.726 1.863 6.987 8.85-6.987 20.961-10.713 32.14-14.906" fill="#6230a3" fill-rule="nonzero" stroke="none" stroke-width="1" stroke-linecap="butt" stroke-linejoin="miter" stroke-miterlimit="10" stroke-dasharray="" stroke-dashoffset="0" font-family="none" font-weight="none" font-size="none" text-anchor="none" style="mix-blend-mode: normal" data-fill-palette-color="tertiary"></path></g><g transform="matrix(1,0,0,1,64,127.08312532378844)"><svg viewBox="0 0 192 105.83374935242311" height="105.83374935242311" width="192"><g><svg viewBox="0 0 192 105.83374935242311" height="105.83374935242311" width="192"><g><svg viewBox="0 0 192 105.83374935242311" height="105.83374935242311" width="192"><g><svg viewBox="0 0 192 105.83374935242311" height="105.83374935242311" width="192"><g id="textblocktransform"><svg viewBox="0 0 192 105.83374935242311" height="105.83374935242311" width="192" id="textblock"><g><svg viewBox="0 0 192 105.83374935242311" height="105.83374935242311" width="192"><g transform="matrix(1,0,0,1,0,0)"><svg width="192" viewBox="1.65 -34.15 62.449999999999996 34.423809523809524" height="105.83374935242311" data-palette-color="#6230a3"><path d="M4.75-1.7Q2.8-2.6 1.65-4.35L1.65-4.35Q2.6-5.55 3.95-5.55L3.95-5.55Q4.6-5.55 5.38-5.3 6.15-5.05 6.4-4.95L6.4-4.95Q7.85-4.45 9.45-4.45L9.45-4.45Q12-4.45 14.23-5.65 16.45-6.85 17.55-8.9L17.55-8.9Q20.4-14.2 20.4-21.3L20.4-21.3Q20.4-24.55 19.8-28.9L19.8-28.9Q18.4-28.85 17.32-28.4 16.25-27.95 14.55-26.95L14.55-26.95Q13.4-26.3 12.1-26.3L12.1-26.3Q11.3-26.3 10.65-26.5L10.65-26.5Q10.1-26.65 9.53-27.03 8.95-27.4 8.75-27.85L8.75-27.85Q8.6-28.15 8.6-28.5L8.6-28.5Q8.6-29 8.95-29.45 9.3-29.9 9.8-30.15L9.8-30.15Q13.55-31.95 16.9-33.2L16.9-33.2Q17.7-33.45 18.85-33.55L18.85-33.55Q19.9-33.65 20.4-33.8L20.4-33.8Q21.9-34.15 22.9-34.15L22.9-34.15Q24.95-34.15 26.6-32.7L26.6-32.7 26.6-29.85Q26.65-28.45 26.65-25.6L26.65-25.6 26.65-23.85 26.6-22.45Q26.5-18 26.15-14.93 25.8-11.85 24.65-8.9L24.65-8.9Q23.35-5.65 21.18-3.65 19-1.65 15.65-1L15.65-1Q13.05-0.45 10.75-0.45L10.75-0.45Q7.55-0.45 4.75-1.7L4.75-1.7ZM36.4-23.3Q36.3-23 35.67-22.65 35.05-22.3 34.65-22L34.65-22 33.25-22.75Q31.2-23.85 30.45-24.5L30.45-24.5Q30.05-24.8 30.05-25.25L30.05-25.25Q30.05-25.55 30.27-25.78 30.5-26 30.95-26L30.95-26Q32.9-26 35.7-25L35.7-25Q36-24.95 36.25-24.33 36.5-23.7 36.4-23.3L36.4-23.3ZM31.9-14Q32.05-14.65 32.1-14.95 32.15-15.25 32.15-15.6L32.15-15.6Q32.15-16.3 32.57-16.7 33-17.1 34.2-17.1L34.2-17.1Q35.6-17.1 36.67-16.23 37.75-15.35 38-13.95L38-13.95Q38.15-13.25 38.2-12.4 38.25-11.55 38.25-11.3L38.25-11.3 38.95-2.75Q39.1-1.4 38.57-0.68 38.05 0.05 36.6 0.05L36.6 0.05Q35.35 0.05 34.47-0.65 33.6-1.35 33.4-2.45L33.4-2.45 32.1-13.05 31.9-14ZM51.2-18.85Q51.2-18.55 51.1-18.07 51-17.6 51.05-17.45L51.05-17.45Q54.5-18.2 56.9-18.2L56.9-18.2Q60.65-18.2 62.55-14.6L62.55-14.6Q64.1-11.55 64.1-7.85L64.1-7.85Q64.1-6.9 63.9-5.1L63.9-5.1Q63.75-3.9 62.95-3.18 62.15-2.45 61.05-2.45L61.05-2.45Q59.9-2.45 59.42-2.88 58.95-3.3 58.87-3.85 58.8-4.4 58.8-5.6L58.8-5.6 58.75-6.65Q58.65-9.65 58.35-11.85L58.35-11.85Q58.2-12.75 57.67-13.13 57.15-13.5 56.3-13.5L56.3-13.5Q55.5-13.5 54.4-13.25L54.4-13.25Q52.7-12.8 52.12-12.55 51.55-12.3 50.45-11.5L50.45-11.5Q50.1-11.25 49.95-10.5 49.8-9.75 49.8-9.65L49.8-9.65Q49.15-6.45 48.4-2L48.4-2Q48.35-1.8 48.2-1.05 48.05-0.3 47.62 0.03 47.2 0.35 46.4 0.25L46.4 0.25Q43.25-0.15 43.2-2.4L43.2-2.4Q43.15-5.3 43.65-9.25L43.65-9.25Q44-12.1 44.3-13.85L44.3-13.85Q44.4-14.65 44.57-15.8 44.75-16.95 44.9-18.45L44.9-18.45Q45.05-19.6 45.2-20.15 45.35-20.7 45.9-21.08 46.45-21.45 47.6-21.45L47.6-21.45Q49.05-21.45 50-20.8 50.95-20.15 51.2-18.95L51.2-18.95 51.2-18.85Z" opacity="1" transform="matrix(1,0,0,1,0,0)" fill="#6230a3" class="undefined-text-0" data-fill-palette-color="primary" id="text-0"></path></svg></g></svg></g></svg></g></svg></g></svg></g></svg></g></svg></g></svg></g><defs></defs></svg><rect width="320" height="360" fill="none" stroke="none" visibility="hidden"></rect></g></svg></g></svg>